# xmcd
#
# Track frame offsets: 
#        150
#        10944
#        28660
#        46527
#        67199
#        96105
#        111155
#        136281
#        156668
#        172893
#        195275
#        211293
#        233177
#
# Disc length: 3292 seconds
#
# Revision: 0
# Processed by: cddbd v1.5.2PL0 Copyright (c) Steve Scherf et al.
# Submitted via: ExactAudioCopy v0.95a5
#
DISCID=a90cda0d
DTITLE=Blood, sweat and Kiers - Live at the Red Kees Café
DYEAR=2007
DGENRE=Blues
TTITLE0=His latest Flame
TTITLE1=La Vie en Rose
TTITLE2=Scat the Riff
TTITLE3=Perdido - Caravan
TTITLE4=Bapow
TTITLE5=Bloody Sweat
TTITLE6=You Said She Wouldn't
TTITLE7=$ 20 Gig
TTITLE8=Mystery Train
TTITLE9=Sleepwalk
TTITLE10=K.Lypso
TTITLE11=Rock This House
TTITLE12=Yakety Sax
EXTD=
EXTT0=
EXTT1=
EXTT2=
EXTT3=
EXTT4=
EXTT5=
EXTT6=
EXTT7=
EXTT8=
EXTT9=
EXTT10=
EXTT11=
EXTT12=
PLAYORDER=
